<?xml version="1.0" encoding="UTF-8"?>
<svg id="_레이어_2" data-name="레이어 2" xmlns="http://www.w3.org/2000/svg" viewBox="0 0 207.39 59.78">
  <defs>
    <style>
      .cls-1 {
        fill: #000000;
      }

      .cls-2 {
        fill: #fff;
      }
    </style>
  </defs>
  <g id="_레이어_1-2" data-name="레이어 1">
    <g>
      <g>
        <path class="cls-1" d="M6.47,27.4c-.43-.32-.42-.65-.1-.79.36-.15.56-.47.68-.81.08-.24.1-.51.05-.82-.84.26-1.73.49-2.67.62-1.83.24-3.31-.31-3.99-1.11-.52-.61-.68-1.43.05-1.85.73-.4,1.64.06,2.63-.24.9-.29,2.11-.64,3.78-1.34,1.93-.81,3.53-1.42,5.36-1.69,3.02-.46,5.23.52,5.47,2.15.14.94-.42,2.04-2.06,2.25-1.71.24-2.28-.08-3.65.01.19.61.27,1.27.11,2.02-.26,1.33-1.9,2.42-4,2.16-.9-.11-1.36-.33-1.66-.56ZM.43,15.96c.32-2.49,2.19-4.61,4.74-5.8,2.89-1.34,6.05-1.29,7.89-.13,2.54,1.58,3.03,5.17,1,7.28-1.78,1.86-5.39,2.58-6.78,2.79-.32.18-.7.34-1.14.48C2.79,21.46,0,19.67.43,15.96ZM5.59,15.79c.13-.69,1.26-1.19,2.28-.82.24.08.5.25.71.47,1.19-.37,1.84-.81,1.82-1.31-.04-.63-.81-1.15-2.61-.61-1.67.48-3.12,1.7-2.72,2.75.22-.19.49-.32.52-.48Z"/>
        <path class="cls-1" d="M18.57,17.62c-.09-1.39,1.1-2.8,1.41-4.19-.92-.23-1.55-.88-1.69-1.92-.06-.51.11-.96.61-1.07.37-.09.65.11,1.11-.15,2.18-1.23,3.04-2.51,5.26-2.81,1.6-.2,3.03.87,3.2,2.23.14.9-.46,1.55-1.31,1.66-.71.11-1,.02-1.42.1-.86.17-1.53.56-2.16.96.37.39.42.9.24,1.46-.2.61-.27.64.24.31,1.65-1.05,2.81-1.4,3.9-1.43.67-.02,1.25.14,1.71.4l-.14-.96c-.37-2.31-.66-3.59-1.38-4.19-.31-.26-.58-.51-.62-.79-.1-.69.81-1.14,1.67-1.27,2.57-.44,3.86,1.13,4.43,4h.09c.92-.13,2.13.61,2.41,2.06.29,1.7-.15,2.58-.82,2.74-.4.14-.73-.14-1.2-.05-.11.02-.2.05-.3.08-.16,1.08-.52,2.02-1.12,2.67,1.65.5,2.62,1.57,2.81,2.82.38,2.54-2.28,3.99-3.42,4.3-.44.12-.83.11-1.16-.02-.6.47-1.65.79-2.98.97-3.39.47-6.26-.11-6.73-2.35-.42-2.05,1.33-4.46,6.39-5.69.97-.22,1.85-.34,2.64-.36l-.03-.19c-1.09-.09-2.16.06-3.44.48-2.76.94-3.38,1.68-4.51,2.18-1.75.78-3.58-.44-3.66-1.98ZM27.69,21.28c.39-.33,1.43-.73,2.15-.15.34-.05.61-.13.55-.28-.1-.25-1.04-.27-1.86-.12-.8.16-2.86.64-2.69,1.04.12.29,1.49-.2,1.85-.49Z"/>
        <path class="cls-1" d="M37.22,8.66c-.11-.5-.04-.88.28-1.06.39-.21.79.03,1.37-.24,1.42-.75,3.45-2.23,4.88-2.66,2.06-.58,3.3.6,3.42,1.41.12.83-.3,1.47-.94,1.66-.31.12-1.1.11-1.56.12-1,.02-3.19,1.77-4.8,2.07-1.59.3-2.46-.42-2.65-1.29ZM37.52,15.9c-.21-.6.1-1.61,1.11-2.93-.37-.14-.69-.38-.92-.75-.26-.44-.25-.79-.09-.99.18-.2.48-.28.81-.33,1.26-.15,3.88-1.76,4.55-2.07,1.37-.63,2.08-.7,2.82-.66.97.05,2.16.94,1.61,2-.34.7-1.75.63-2.64.94-.97.3-1.61.67-2.34,1.04l-.21.38c-.13.27.12.04.24-.04,1.8-1.16,3.25-1.37,4.42-1.42.73-.03,1.4.21,1.88.6l-.12-.81c-.38-.33-.65-.77-.73-1.16-.13-.52-.07-.62.31-.87l.1-.07c-.31-1.8-.61-3.02-1.17-3.67-.32-.34-.51-.59-.55-.84-.1-.64.61-1.03,1.51-1.17,2.1-.34,3.32.77,3.99,2.78,1.15-.02,2.19.65,2.61,2.05.37,1.46-.2,2.64-.63,2.86-.43.18-.87-.14-1.29-.17.02,1.69-.18,3.27-.92,4.38,1.4.52,2.24,1.47,2.41,2.58.37,2.44-2.3,3.86-3.44,4.17-.44.12-.83.11-1.15,0-.61.44-1.65.75-2.99.93-3.39.47-6.25-.06-6.71-2.22-.41-1.97,1.35-4.29,6.41-5.5,1-.23,1.93-.35,2.77-.36l-.1-.64c-.34.4-.89.5-1.57.58-.94.1-2.04.33-3.3.82-1.63.65-2.52,1.36-3.53,1.82-1.21.53-2.82-.25-3.17-1.29ZM46.5,18.6c.39-.33,1.43-.71,2.16-.17.32-.05.6-.11.54-.27-.09-.24-1.03-.23-1.86-.1-.8.16-2.86.64-2.69,1.04.12.27,1.48-.22,1.85-.49Z"/>
        <path class="cls-1" d="M56.01,5.83c-.11-.5-.04-.88.28-1.06.39-.21.79.03,1.37-.24,1.42-.75,3.45-2.23,4.88-2.66,2.06-.58,3.3.6,3.42,1.41.12.83-.3,1.47-.94,1.66-.31.12-1.1.11-1.56.12-1,.02-3.19,1.77-4.8,2.07-1.59.3-2.46-.42-2.65-1.29ZM56.31,13.07c-.21-.6.1-1.61,1.11-2.94-.37-.14-.69-.38-.92-.74-.26-.44-.25-.79-.09-.99.18-.2.48-.28.81-.33,1.26-.15,3.88-1.76,4.55-2.07,1.37-.63,2.08-.7,2.82-.66.97.05,2.16.94,1.61,2.01-.34.7-1.75.63-2.64.94-.97.3-1.61.67-2.34,1.04l-.21.38c-.13.27.12.04.24-.04,1.8-1.16,3.25-1.37,4.42-1.42.72-.03,1.4.21,1.88.6l-.12-.81c-.38-.33-.65-.77-.73-1.16-.14-.52-.08-.62.31-.87l.1-.07c-.31-1.8-.61-3.02-1.17-3.67-.32-.34-.51-.6-.55-.84-.1-.64.61-1.03,1.51-1.17,2.1-.33,3.32.77,3.99,2.78,1.15-.02,2.19.65,2.61,2.04.37,1.46-.2,2.64-.63,2.86-.43.18-.87-.14-1.29-.17.02,1.69-.18,3.27-.91,4.38,1.4.52,2.24,1.47,2.4,2.58.37,2.44-2.3,3.86-3.44,4.17-.44.12-.83.11-1.15,0-.61.44-1.66.75-2.99.93-3.39.47-6.25-.06-6.71-2.21-.41-1.97,1.35-4.3,6.41-5.5,1-.23,1.93-.35,2.77-.36l-.1-.64c-.34.4-.89.5-1.57.58-.94.1-2.04.33-3.29.82-1.63.65-2.52,1.36-3.53,1.82-1.21.53-2.82-.25-3.17-1.29ZM65.28,15.77c.39-.33,1.43-.71,2.16-.17.32-.05.6-.11.54-.27-.09-.24-1.03-.23-1.86-.1-.8.16-2.86.64-2.69,1.04.12.27,1.48-.22,1.85-.49Z"/>
      </g>
      <g>
        <path class="cls-1" d="M10.95,54.63c-.06,2.88.41,3.64,2.3,3.71v.76H4.85v-.76c1.89-.07,2.34-.79,2.3-3.71v-20.81h-.71c-1.54-.04-3.19,3.46-3.92,8.35h-.35l.3-9.18h13.21l.33,9.18h-.37c-1.18-5.9-2.3-8.32-3.96-8.35h-.73v20.81Z"/>
        <path class="cls-1" d="M22.13,54.31c-.04,3.2.39,3.92,2.4,4.03v.76h-8.35v-.76c1.81-.14,2.26-.94,2.19-3.78v-17.13c.06-2.88-.37-3.6-2.19-3.67v-.76h7.89c1.99,0,3.33.36,4.25,1.08,1.26,1.08,1.97,2.99,1.97,5.33,0,3.82-1.48,5.94-4.43,6.37v.11c2.44.79,2.97,1.84,4.65,9.65.43,1.91,1.02,2.74,1.93,2.77v.79h-5.45c-.87-5.15-1.73-9.11-2.3-10.47-.59-1.44-1.3-2.12-2.07-2.12h-.49v7.81ZM23.08,45.52c2.2,0,3.33-2.05,3.33-6.05,0-3.56-.91-5.58-2.54-5.58h-.39c-1,0-1.4,1.12-1.36,3.64v7.99h.96Z"/>
        <path class="cls-1" d="M40.43,33c1.79,0,2.99.32,3.96,1.12,1.42,1.08,2.26,3.38,2.26,6.08,0,2.88-.65,4.93-2.01,6.3-1.06,1.08-2.22,1.4-4.82,1.4h-1.28v6.66c-.06,2.95.41,3.67,2.38,3.78v.76h-8.35v-.76c1.81-.14,2.26-.94,2.19-3.78v-17.13c.06-2.88-.37-3.6-2.19-3.67v-.76h7.87ZM39.33,46.86c1.2,0,2.05-.5,2.64-1.58.55-1.01.91-3.13.91-5.36,0-3.82-.98-6.05-2.64-6.05h-.33c-1.04,0-1.42,1.04-1.38,3.56v9.43h.79Z"/>
        <path class="cls-1" d="M59.31,57.33c-1.06,1.73-2.17,2.45-3.9,2.45-4.55,0-7.3-5.04-7.3-13.46s3.17-14.04,7.91-14.04c1.22,0,2.24.4,3.64,1.48.37.29.65.43.79.43.35,0,.51-.47.53-1.48h.67v9.39h-.63c-.69-5.72-2.4-8.93-4.76-8.93s-4.02,5.29-4.02,12.96,1.67,11.92,4.53,11.92c1,0,1.91-.79,2.13-1.87.14-.65.18-1.4.18-3.42v-1.58c.04-2.92-.37-3.6-2.22-3.71v-.79h6.99v.79c-1.18.07-1.5.94-1.46,3.71v8.6h-.75l-2.34-2.45Z"/>
      </g>
      <g>
        <path class="cls-1" d="M91.13,30.79c2.83,9.46,10.51,17.14,19.92,19.92-2.4,1.2-3.46,2.54-5.38,6.82-.48,1.06-1.01,1.58-1.58,1.58-.82,0-2.93-1.39-4.7-3.07-5.23-4.99-8.06-12.58-8.93-24-.67,7.68-3.46,14.64-7.49,18.96-3.79,3.94-9.55,6.77-17.23,8.35l-.1-.19c4.51-2.26,8.45-6.1,12-11.71,2.78-4.51,4.22-9.55,4.75-16.66h-11.76l-3.07.19-.62-1.34,3.7.29h11.81c.1-1.87.14-3.6.14-5.67,0-4.27-.14-6.34-.53-8.3,8.11.38,11.19.96,11.19,2.11,0,.53-.72,1.15-2.35,2.02v4.51l-.05,1.58c-.05,1.15-.1,2.59-.19,3.74h6.62l4.9-6.77.72.67c3.65,3.55,4.22,4.13,6.34,6.34l-.38.62h-17.71Z"/>
        <path class="cls-1" d="M112.92,40.58c4.18-6.34,8.3-16.8,9.74-24.67,6.43,1.34,9.22,2.4,9.22,3.46,0,.48-.67.91-2.16,1.39-1.01,2.35-2.45,4.85-4.32,7.39,2.35.48,3.26.91,3.26,1.49,0,.43-.62.91-1.97,1.54q-.05,4.75-.05,9.17l.05,4.03.05,10.37c.05.67.05,1.3.05,1.49,0,2.02-.24,2.59-1.1,2.98-.53.19-1.87.38-2.98.38-2.74,0-3.46-.48-3.46-2.4,0-.34,0-.86.05-1.39.29-10.9.29-12.05.34-20.79-2.06,2.21-4.46,4.32-6.58,5.71l-.14-.14ZM145.42,46.49c0,2.59,0,4.56.05,6.05.05,1.73.05,3.07.05,4.08,0,2.5-.86,3.07-4.56,3.07-2.59,0-3.17-.53-3.12-2.98.1-7.2.1-8.54.14-27.27v-2.54c-2.93,4.99-6.67,9.12-10.56,11.67l-.24-.14c3.46-7.25,5.76-15.12,6.67-22.71,6.96,1.34,9.94,2.35,9.94,3.5,0,.53-.82,1.01-2.69,1.58-.82,1.82-1.39,3.02-2.3,4.71h9.65l3.98-6.05c2.06,1.92,3.12,3.02,5.42,5.81l.48.53-.43.58h-12.53v9.41h2.64l3.6-5.71c2.02,2.16,3.31,3.7,4.8,5.95l-.34.62h-10.71v3.22c0,2.64,0,3.79.05,5.76h3.41l3.7-6.34c1.97,2.02,3.02,3.31,5.28,6.53l-.43.67h-11.95Z"/>
        <path class="cls-1" d="M177.58,49.23c0,2.21.05,3.94.1,5.38.05,1.2.1,2.21.1,2.88,0,1.01-.29,1.54-.96,1.82-.48.19-2.11.43-3.17.43-2.3,0-3.02-.48-3.02-2.11v-.77c.05-1.3.05-2.4.05-7.63h-6.24l-3.07.19-.62-1.34,3.7.29h6.29v-6.62h-1.3v1.3c0,.86-.19,1.34-.62,1.63-.43.34-1.78.58-3.02.58-.43,0-.58,0-1.15-.1-1.3-.19-1.73-.62-1.73-1.73,0-.34,0-.72.05-1.2.05-1.49.14-7.25.14-11.04,0-1.78-.05-2.78-.19-4.37l-.05-.72-.05-.34c2.35.53,3.36.77,6.24,1.63l.53.14h6.48c.34-1.34.43-2.02.67-3.74-.77,1.54-2.02,2.4-3.46,2.4-1.15,0-2.26-.62-2.69-1.49q-.19-.38-.19-1.49c-.1-3.41-.53-5.81-1.25-7.34l.19-.14c4.22.62,7.15,3.02,7.73,6.24l.1-1.01c.48-3.98.53-4.32.58-5.62,6.34,1.68,9.03,2.88,9.03,3.89,0,.43-.77.91-2.16,1.2-2.21,2.59-5.23,5.62-7.2,7.1h1.82l2.64-3.22c3.89,3.31,5.04,4.56,5.04,5.42,0,.34-.1.48-.53.86l-1.1.91,4.42-.38c-.38-3.84-.43-4.51-.77-11.52-.1-.96-.24-2.3-.43-3.94,6.53.48,9.12,1.01,9.12,1.92,0,.24-.19.48-.62.82,4.61.24,7.68,2.06,7.68,4.61,0,1.34-.72,2.4-2.16,3.07l.14.14c2.21,2.02,2.64,2.45,3.84,3.7l-.34.67-9.65.82c.24,2.11.62,4.85,1.06,7.2,1.2-2.5,2.26-4.8,3.02-6.82,3.98,2.16,6.38,4.08,6.38,5.09,0,.48-.58.77-1.68.82-1.78,3.26-3.65,6.1-5.57,8.45.43,1.06,1.15,2.5,1.63,3.17.48.77.67,1.01.91,1.01.58,0,2.06-3.26,3.12-6.77l.24.14c-.43,2.98-.58,4.75-.58,6.05,0,1.78.29,2.69,1.01,3.26.91.77,1.34,1.44,1.34,2.26,0,.62-.24,1.39-.67,2.11-.77,1.44-2.06,2.21-3.55,2.21-3.36,0-5.76-2.16-8.69-7.87-3.41,2.93-8.74,5.9-13.73,7.63l-.14-.19c3.36-2.45,8.3-7.63,11.95-12.43-1.3-4.13-2.45-10.13-2.78-14.74l-4.51.38v3.98c0,2.4,0,3.12.1,4.13l.05,1.73c0,1.06-.29,1.49-1.3,1.82,1.63,1.25,2.74,2.3,4.85,4.56l-.53.62h-10.85ZM161.84,16.34c4.85.38,8.4,3.02,8.4,6.19,0,2.02-1.63,3.65-3.55,3.65-1.3,0-2.4-.48-2.88-1.25q-.19-.29-.34-1.49c-.48-4.22-.77-5.38-1.78-6.91l.14-.19ZM171.05,34.01v-5.62h-1.63v5.62h1.63ZM171.05,40.87v-6h-1.63v6h1.63ZM177.34,28.39v5.62h1.68v-5.62h-1.68ZM179.02,40.87v-6h-1.68v6h1.68ZM183.05,44.23c-.34.05-.67.1-1.15.1-2.21,0-2.88-.43-2.88-1.87v-.72h-1.44v6.62h2.26l3.22-4.13ZM200.62,26.33c-1.06-.1-1.87-.77-1.92-1.58-.43-2.78-1.01-4.37-2.21-6l-.62.34c-.05,3.7.14,8.02.53,11.47l2.5-.24,1.73-3.98Z"/>
      </g>
      <circle class="cls-1" cx="86.85" cy="5.67" r="5.67"/>
      <circle class="cls-1" cx="135.75" cy="5.67" r="5.67"/>
      <circle class="cls-1" cx="184.65" cy="5.67" r="5.67"/>
      <path class="cls-2" d="M89.36,7.62c0,1.22-.03,1.53-.19,1.91-.17.42-.44.41-.44-.21v-3.39l-1.17.04c0,2.15-.03,2.58-.19,2.95-.19.42-.42.46-.42-.11v-2.23c-.88.48-1.87.79-2.83.98-.39.07-.58-.41-.58-.67l-.02-2.83c0-.18-.2-.23-.53-.37-.25-.04-.39-.2.1-.31.38,0,.73.07,1,.14.18,0,.5,0,.76,0,.39-.06.17-.22.88-.22.67,0,.59.5.19.51-.52.03-1.3.06-1.65.04-.02.02-.12-.04-.12.11,0,.34,0,1.97,0,2.77,0,.14,0,.18.25.17.63-.03,1.98-.35,2.53-.65v-3.41c0-.19-.38-.32-.66-.42-.23-.08-.42-.25.16-.31,1.35.18,1.11.33,1.11.56v2.92l1.17-.04v-3.21c0-.13-.31-.32-.77-.51-.31-.13-.41-.3.16-.31.44.04.85.19,1.03.26.3.12.21.24.21.42v5.41Z"/>
      <path class="cls-2" d="M136.08,6.01c-.18-.18-.71-.73-1.3-1.32-.61.53-1.55,1.27-2.61,1.7-.47.19-.58.05-.13-.2,1.06-.59,2.53-1.73,3.26-3.09-.45.02-1.38.05-1.68.09-.33.04-.1.31-1.06-.18-.29-.14-.28-.33.16-.24.13.03.28.05.43.05.36.02.77,0,1.19,0,.31,0,.61-.02.89-.02h.06c.21-.03.09-.08.53-.07.78.02.36.27.22.47-.3.4-.73.95-1.01,1.26.13.14.32.33.46.43.34.27.41-.02.92.63.45.57.04.87-.33.5ZM137.91,9.43c-.16.53-.48.68-.48.06v-2.27c-.62.02-1.96.02-2.73.11-.58.06-.21.35-1.25-.17-.27-.13-.39-.32.08-.26.87.13,2.41,0,3.56,0,.23,0,.16-.09.58-.09.77,0,.42.21.37.47-.02,1.17,0,1.49-.13,2.16ZM138.1,5.13c0,.64-.05.94-.15,1.18-.16.41-.45.64-.45-.11v-3.76c0-.17-.23-.34-.74-.53-.38-.14-.4-.31.13-.32.4.04.68.13.92.21.48.15.31.24.31.52v2.49c.1,0,.16,0,.28,0,.42-.1.2-.29,1-.24.56.03.46.53.09.54l-1.39.03Z"/>
      <path class="cls-2" d="M184.74,6.72c-.39-.45-.9-1.09-1.32-1.62-.66.67-1.33,1.22-2.45,1.82-.57.24-.62.16-.12-.17,1.38-.93,2.6-2.22,3.12-3.36-.22,0-.44.02-.67.04-.32.02-.63.05-.93.06l-.06.02c-.34.1-.14.35-1.01-.17-.27-.16-.34-.32.19-.23.25.04.58.05.94.05.56,0,1.15-.04,1.48-.06.23-.02.06-.11.53-.09.66.04.38.2.23.41-.18.32-.56.92-1.04,1.49.8.81.76.5,1.15.96.68.8.24,1.19-.04.86ZM184.1,9.35c-.77,0-.98-.03-.98-.64v-1.05c0-.09-.13-.15-.5-.23-.39-.09-.38-.25,0-.32.41-.02.79,0,.91.03.31.04.2.13.2.39,0,.65,0,.97,0,1.29,0,.18.06.22.21.22h2.04c.64,0,.24-.28,1.24-.26.7.02.69.59.26.59h-3.39ZM186.99,5.92c0,1.43-.06,1.81-.3,2.1-.15.15-.31-.03-.31-.63v-2.51l-.91.08c-.29.06-.06.28-.83-.07-.45-.21-.39-.31.1-.26.15,0,.31.02.48.02.33,0,.71-.04,1.16-.07v-2.1c0-.2-.26-.31-.71-.53-.41-.12-.43-.32.12-.33.42.05.7.14.94.23.41.14.29.31.25.54v3.55Z"/>
    </g>
  </g>
</svg>